<?xml version="1.0" encoding="UTF-8"?>
<svg width="24px" height="24px" viewBox="0 0 24 24" version="1.1" xmlns="http://www.w3.org/2000/svg">
    <path
        d="M24,12.073 C24,5.40365 18.62935,0 12,0 C5.37065,0 0,5.40365 0,12.073 C0,18.0988 4.38825,23.0935 10.125,24 L10.125,15.563 H7.078125 L7.078125,12.073 H10.125 V9.413 C10.125,6.38781 11.9166,4.71656 14.6576,4.71656 C15.9701,4.71656 17.3438,4.95206 17.3438,4.95206 L17.3438,7.92156 H15.8306 C14.34,7.92156 13.875,8.85225 13.875,9.80857 L13.875,12.073 H17.2031 L16.6711,15.563 H13.875 L13.875,24 C19.6117,23.0935 24,18.0988 24,12.073"
        fill="#1877F2" />
</svg>